<?xml version="1.0" encoding="UTF-8"?>
<svg id="Layer_1" data-name="Layer 1" xmlns="http://www.w3.org/2000/svg" viewBox="0 0 221.48 76.48">
  <g>
    <path d="M0,52.82c0-13.79,10.59-23.66,24.83-23.66,7.91,0,14.51,2.88,18.82,8.1h0c-3.36,3.1-8.22,3.86-12.43,2.07-1.8-.77-3.75-1.16-5.87-1.16-8.56,0-14.64,6.01-14.64,14.64s6.08,14.64,14.64,14.64c2.14,0,4.11-.4,5.93-1.19,4.18-1.82,9.02-1.05,12.37,2.04h0c-4.31,5.29-10.91,8.17-18.89,8.17-14.18,0-24.77-9.87-24.77-23.66Z" style="fill: #0e7fc3; stroke-width: 0px;"/>
    <path d="M45.61,29.95h0c5.85,0,10.59,4.74,10.59,10.59v26.53h14.31c4.76,0,8.63,3.86,8.63,8.63h0s-33.53,0-33.53,0V29.95Z" style="fill: #0e7fc3; stroke-width: 0px;"/>
    <path d="M76.26,52.82c0-13.59,10.59-23.66,25.03-23.66s25.03,10,25.03,23.66-10.65,23.66-25.03,23.66-25.03-10.06-25.03-23.66ZM115.61,52.82c0-8.69-6.14-14.64-14.31-14.64s-14.31,5.95-14.31,14.64,6.14,14.64,14.31,14.64,14.31-5.95,14.31-14.64Z" style="fill: #0e7fc3; stroke-width: 0px;"/>
    <path d="M128.74,55.57v-25.62h10.59v25.23c0,8.69,3.79,12.29,10.2,12.29s10.2-3.59,10.2-12.29v-14.77c0-5.78,4.68-10.46,10.46-10.46h0v25.62c0,13.46-7.71,20.91-20.72,20.91s-20.72-7.45-20.72-20.91Z" style="fill: #0e7fc3; stroke-width: 0px;"/>
    <path d="M175.47,39.25c0-5.14,4.17-9.3,9.3-9.3h11.48c14.97,0,25.23,9.02,25.23,22.87s-10.26,22.87-25.23,22.87h-20.78v-36.45ZM195.73,67c9.08,0,15.03-5.42,15.03-14.18s-5.95-14.18-15.03-14.18h-3.19c-3.58,0-6.48,2.9-6.48,6.48v21.88h9.67Z" style="fill: #0e7fc3; stroke-width: 0px;"/>
  </g>
  <g>
    <path d="M23.73,11.1v7.48c0,3.75-3.04,6.78-6.78,6.78h0v-3.11c-1.35,2.28-3.95,3.48-7.62,3.48-5.85,0-9.34-3.25-9.34-7.57s3.11-7.48,10.73-7.48h5.76c0-3.11-1.86-4.92-5.76-4.92-2.65,0-5.39.88-7.2,2.32h0c-1.6-3.11.19-6.91,3.62-7.62,1.48-.31,3.02-.46,4.56-.46,7.62,0,12.03,3.53,12.03,11.1ZM16.49,17.46v-2.55h-4.97c-3.39,0-4.46,1.25-4.46,2.93,0,1.81,1.53,3.02,4.09,3.02,2.42,0,4.51-1.11,5.34-3.39Z" style="fill: #0e7fc3; stroke-width: 0px;"/>
    <path d="M30.24.37h0c2,0,3.62,1.62,3.62,3.62v17.74c0,2-1.62,3.62-3.62,3.62h0c-2,0-3.62-1.62-3.62-3.62V3.99c0-2,1.62-3.62,3.62-3.62Z" style="fill: #0e7fc3; stroke-width: 0px;"/>
    <path d="M79.14,11.05v14.31h0c-4,0-7.25-3.24-7.25-7.25v-5.95c0-4.04-1.81-5.9-4.74-5.9-3.25,0-5.53,2.09-5.53,6.55v12.54h-7.25v-13.19c0-4.04-1.72-5.9-4.74-5.9-3.2,0-5.48,2.09-5.48,6.55v5.29c0,4-3.24,7.25-7.25,7.25h0V.37h6.92v2.88c1.86-2.14,4.64-3.25,7.85-3.25,3.48,0,6.46,1.35,8.22,4.09,2-2.55,5.25-4.09,9.01-4.09,5.95,0,10.22,3.44,10.22,11.05Z" style="fill: #0e7fc3; stroke-width: 0px;"/>
  </g>
</svg>