<svg width="20" height="19" viewBox="0 0 20 19" fill="none" xmlns="http://www.w3.org/2000/svg">
<path d="M1.4 1.35714H12.6V8.00714H14V1.35714C14 0.997206 13.8525 0.652012 13.5899 0.397498C13.3274 0.142984 12.9713 0 12.6 0H1.4C1.0287 0 0.672601 0.142984 0.41005 0.397498C0.1475 0.652012 0 0.997206 0 1.35714V17.6429C0 18.0028 0.1475 18.348 0.41005 18.6025C0.672601 18.857 1.0287 19 1.4 19H12.6C12.9713 19 13.3274 18.857 13.5899 18.6025C13.8525 18.348 14 18.0028 14 17.6429H1.4V1.35714Z" fill="#DC2626"/>
<path d="M15.779 9.15794C15.6408 9.05033 15.4629 8.99411 15.281 9.00049C15.0991 9.00688 14.9266 9.0754 14.7978 9.19238C14.6691 9.30935 14.5937 9.46616 14.5867 9.63146C14.5797 9.79677 14.6415 9.95839 14.7599 10.084L17.2029 12.2581H6.72277C6.53108 12.2581 6.34724 12.3273 6.21169 12.4505C6.07615 12.5737 6 12.7407 6 12.9149C6 13.0891 6.07615 13.2562 6.21169 13.3794C6.34724 13.5025 6.53108 13.5717 6.72277 13.5717H17.2029L14.7599 15.8443C14.6843 15.9032 14.6228 15.9756 14.5794 16.0571C14.5361 16.1386 14.5117 16.2274 14.5078 16.3178C14.504 16.4083 14.5208 16.4985 14.5571 16.5828C14.5934 16.6671 14.6486 16.7436 14.719 16.8076C14.7894 16.8716 14.8737 16.9217 14.9664 16.9547C15.0592 16.9878 15.1584 17.003 15.258 16.9995C15.3575 16.996 15.4552 16.9739 15.5448 16.9344C15.6345 16.895 15.7142 16.8392 15.779 16.7704L20 12.9609L15.779 9.15794Z" fill="#FF2222"/>
</svg>
