<svg width="12" height="14" viewBox="0 0 12 14" fill="none" xmlns="http://www.w3.org/2000/svg">
<path d="M2.24229 14C1.85829 14 1.53143 13.8603 1.26171 13.581C0.992 13.3016 0.857143 12.9634 0.857143 12.5663V1.57134H0V0.683576H3.42857V0H8.57143V0.683576H12V1.57134H11.1429V12.5663C11.1429 12.9746 11.0109 13.3158 10.7469 13.5899C10.4829 13.8639 10.1531 14.0006 9.75772 14H2.24229ZM10.2857 1.57134H1.71429V12.5663C1.71429 12.7255 1.76371 12.8563 1.86257 12.9587C1.96143 13.061 2.088 13.1122 2.24229 13.1122H9.75857C9.89 13.1122 10.0109 13.0554 10.1211 12.9418C10.2314 12.8282 10.2863 12.7027 10.2857 12.5654V1.57134ZM4.12114 11.3367H4.97829V3.34686H4.12114V11.3367ZM7.02171 11.3367H7.87886V3.34686H7.02171V11.3367Z" fill="#EA3838"/>
</svg>
