<svg width="18" height="17" viewBox="0 0 18 17" fill="none" xmlns="http://www.w3.org/2000/svg">
<path d="M9.36403 2.125H4.43853C4.0653 2.125 3.70735 2.27426 3.44343 2.53993C3.17952 2.80561 3.03125 3.16594 3.03125 3.54167V13.4583C3.03125 13.8341 3.17952 14.1944 3.44343 14.4601C3.70735 14.7257 4.0653 14.875 4.43853 14.875H14.2895C14.6628 14.875 15.0207 14.7257 15.2846 14.4601C15.5485 14.1944 15.6968 13.8341 15.6968 13.4583V8.5" stroke="#333333" stroke-linecap="round" stroke-linejoin="round"/>
<path d="M13.8497 1.85941C14.1297 1.57762 14.5093 1.41931 14.9052 1.41931C15.3011 1.41931 15.6807 1.57762 15.9607 1.85941C16.2406 2.14121 16.3979 2.5234 16.3979 2.92191C16.3979 3.32043 16.2406 3.70262 15.9607 3.98441L9.61873 10.3693C9.45165 10.5374 9.24524 10.6604 9.01853 10.727L6.99696 11.322C6.93641 11.3398 6.87223 11.3409 6.81114 11.3251C6.75004 11.3094 6.69427 11.2774 6.64968 11.2325C6.60508 11.1876 6.57329 11.1314 6.55764 11.0699C6.54199 11.0084 6.54304 10.9438 6.5607 10.8829L7.15176 8.84783C7.21828 8.61978 7.34072 8.41225 7.50781 8.24433L13.8497 1.85941Z" stroke="#333333" stroke-linecap="round" stroke-linejoin="round"/>
</svg>
