<svg width="15" height="13" viewBox="0 0 15 13" fill="none" xmlns="http://www.w3.org/2000/svg">
<path d="M14.8308 4.55465L11.3694 8.10001C11.2611 8.21089 11.1143 8.27318 10.9612 8.27318C10.8081 8.27318 10.6613 8.21089 10.553 8.10001C10.4448 7.98914 10.384 7.83876 10.384 7.68195C10.384 7.52515 10.4448 7.37477 10.553 7.2639L13.0301 4.72748H10.168C8.76079 4.72708 7.3934 5.20574 6.28081 6.08819C5.16822 6.97065 4.37355 8.20683 4.02175 9.60236C3.9835 9.75418 3.88794 9.88421 3.75608 9.96386C3.62422 10.0435 3.46687 10.0662 3.31865 10.0271C3.17043 9.98789 3.04347 9.89 2.96571 9.75495C2.88794 9.61989 2.86575 9.45873 2.904 9.30691C3.31909 7.65723 4.25811 6.19582 5.57319 5.1528C6.88827 4.10978 8.5047 3.5444 10.168 3.54569H13.0316L10.553 1.00928C10.4994 0.95438 10.4569 0.889204 10.4279 0.817474C10.3989 0.745744 10.384 0.668863 10.384 0.591223C10.384 0.513582 10.3989 0.436702 10.4279 0.364971C10.4569 0.293241 10.4994 0.228065 10.553 0.173165C10.6613 0.0622893 10.8081 0 10.9612 0C11.037 0 11.1121 0.0152924 11.1821 0.0450042C11.2521 0.0747159 11.3158 0.118265 11.3694 0.173165L14.8308 3.71853C14.8844 3.77341 14.927 3.83858 14.956 3.91031C14.9851 3.98204 15 4.05894 15 4.13659C15 4.21424 14.9851 4.29113 14.956 4.36286C14.927 4.4346 14.8844 4.49977 14.8308 4.55465ZM12.115 11.8182H1.15381V2.9548C1.15381 2.79808 1.09303 2.64779 0.984839 2.53697C0.876649 2.42616 0.729911 2.36391 0.576906 2.36391C0.423901 2.36391 0.277163 2.42616 0.168972 2.53697C0.0607809 2.64779 0 2.79808 0 2.9548V12.4091C0 12.5658 0.0607809 12.7161 0.168972 12.8269C0.277163 12.9377 0.423901 13 0.576906 13H12.115C12.268 13 12.4148 12.9377 12.523 12.8269C12.6311 12.7161 12.6919 12.5658 12.6919 12.4091C12.6919 12.2524 12.6311 12.1021 12.523 11.9913C12.4148 11.8805 12.268 11.8182 12.115 11.8182Z" fill="#333333"/>
</svg>
